<mxfile host="app.diagrams.net" modified="2024-04-09T02:34:56.827Z" agent="Mozilla/5.0 (Windows NT 10.0; Win64; x64) AppleWebKit/537.36 (KHTML, like Gecko) Chrome/123.0.0.0 Safari/537.36" etag="-omzP5J1dnoRo7MfmmGk" version="24.2.2" type="google">
  <diagram name="Page-1" id="13e1069c-82ec-6db2-03f1-153e76fe0fe0">
    <mxGraphModel grid="1" page="1" gridSize="10" guides="1" tooltips="1" connect="1" arrows="1" fold="1" pageScale="1" pageWidth="1100" pageHeight="850" background="none" math="0" shadow="0">
      <root>
        <mxCell id="0" />
        <mxCell id="1" parent="0" />
        <mxCell id="7baba1c4bc27f4b0-2" value=":Usuario" style="shape=umlLifeline;perimeter=lifelinePerimeter;whiteSpace=wrap;html=1;container=1;collapsible=0;recursiveResize=0;outlineConnect=0;rounded=1;shadow=0;comic=0;labelBackgroundColor=none;strokeWidth=1;fontFamily=Verdana;fontSize=12;align=center;" vertex="1" parent="1">
          <mxGeometry x="520" y="80" width="100" height="580" as="geometry" />
        </mxCell>
        <mxCell id="LcGpcMvWt2SgMjPczcAH-19" value="" style="html=1;points=[[0,0,0,0,5],[0,1,0,0,-5],[1,0,0,0,5],[1,1,0,0,-5]];perimeter=orthogonalPerimeter;outlineConnect=0;targetShapes=umlLifeline;portConstraint=eastwest;newEdgeStyle={&quot;curved&quot;:0,&quot;rounded&quot;:0};" vertex="1" parent="7baba1c4bc27f4b0-2">
          <mxGeometry x="45" y="80" width="10" height="80" as="geometry" />
        </mxCell>
        <mxCell id="OxKVXp9wMLbaAqHzc7Et-2" value="" style="html=1;points=[[0,0,0,0,5],[0,1,0,0,-5],[1,0,0,0,5],[1,1,0,0,-5]];perimeter=orthogonalPerimeter;outlineConnect=0;targetShapes=umlLifeline;portConstraint=eastwest;newEdgeStyle={&quot;curved&quot;:0,&quot;rounded&quot;:0};" vertex="1" parent="7baba1c4bc27f4b0-2">
          <mxGeometry x="45" y="420" width="10" height="90" as="geometry" />
        </mxCell>
        <mxCell id="7baba1c4bc27f4b0-3" value=":BDUsuarios" style="shape=umlLifeline;perimeter=lifelinePerimeter;whiteSpace=wrap;html=1;container=1;collapsible=0;recursiveResize=0;outlineConnect=0;rounded=1;shadow=0;comic=0;labelBackgroundColor=none;strokeWidth=1;fontFamily=Verdana;fontSize=12;align=center;" vertex="1" parent="1">
          <mxGeometry x="950" y="80" width="130" height="680" as="geometry" />
        </mxCell>
        <mxCell id="LcGpcMvWt2SgMjPczcAH-20" value="" style="html=1;points=[[0,0,0,0,5],[0,1,0,0,-5],[1,0,0,0,5],[1,1,0,0,-5]];perimeter=orthogonalPerimeter;outlineConnect=0;targetShapes=umlLifeline;portConstraint=eastwest;newEdgeStyle={&quot;curved&quot;:0,&quot;rounded&quot;:0};" vertex="1" parent="7baba1c4bc27f4b0-3">
          <mxGeometry x="60" y="160" width="10" height="80" as="geometry" />
        </mxCell>
        <mxCell id="OxKVXp9wMLbaAqHzc7Et-1" value="" style="html=1;points=[[0,0,0,0,5],[0,1,0,0,-5],[1,0,0,0,5],[1,1,0,0,-5]];perimeter=orthogonalPerimeter;outlineConnect=0;targetShapes=umlLifeline;portConstraint=eastwest;newEdgeStyle={&quot;curved&quot;:0,&quot;rounded&quot;:0};" vertex="1" parent="7baba1c4bc27f4b0-3">
          <mxGeometry x="60" y="500" width="10" height="180" as="geometry" />
        </mxCell>
        <mxCell id="LcGpcMvWt2SgMjPczcAH-13" value="" style="shape=umlLifeline;perimeter=lifelinePerimeter;whiteSpace=wrap;html=1;container=1;dropTarget=0;collapsible=0;recursiveResize=0;outlineConnect=0;portConstraint=eastwest;newEdgeStyle={&quot;curved&quot;:0,&quot;rounded&quot;:0};participant=umlActor;size=60;" vertex="1" parent="1">
          <mxGeometry x="110" y="60" width="50" height="730" as="geometry" />
        </mxCell>
        <mxCell id="LcGpcMvWt2SgMjPczcAH-15" value="" style="html=1;points=[[0,0,0,0,5],[0,1,0,0,-5],[1,0,0,0,5],[1,1,0,0,-5]];perimeter=orthogonalPerimeter;outlineConnect=0;targetShapes=umlLifeline;portConstraint=eastwest;newEdgeStyle={&quot;curved&quot;:0,&quot;rounded&quot;:0};" vertex="1" parent="LcGpcMvWt2SgMjPczcAH-13">
          <mxGeometry x="20" y="100" width="10" height="160" as="geometry" />
        </mxCell>
        <mxCell id="LcGpcMvWt2SgMjPczcAH-14" value="Usuario" style="text;strokeColor=none;align=center;fillColor=none;html=1;verticalAlign=middle;whiteSpace=wrap;rounded=0;" vertex="1" parent="1">
          <mxGeometry x="110" y="20" width="60" height="30" as="geometry" />
        </mxCell>
        <mxCell id="LcGpcMvWt2SgMjPczcAH-16" value="" style="html=1;verticalAlign=bottom;endArrow=block;curved=0;rounded=0;exitX=1;exitY=0;exitDx=0;exitDy=5;exitPerimeter=0;" edge="1" parent="1" source="LcGpcMvWt2SgMjPczcAH-15" target="LcGpcMvWt2SgMjPczcAH-19">
          <mxGeometry width="80" relative="1" as="geometry">
            <mxPoint x="510" y="310" as="sourcePoint" />
            <mxPoint x="590" y="310" as="targetPoint" />
          </mxGeometry>
        </mxCell>
        <mxCell id="LcGpcMvWt2SgMjPczcAH-17" value="crear_usuario(&lt;span style=&quot;font-size: 11px; background-color: rgb(255, 255, 255);&quot;&gt;nombre_usuario, contraseña, ubicacion, preferencia_unidad_medida&lt;/span&gt;)" style="text;html=1;align=center;verticalAlign=middle;resizable=0;points=[];autosize=1;strokeColor=none;fillColor=none;" vertex="1" parent="1">
          <mxGeometry x="130" y="138" width="440" height="30" as="geometry" />
        </mxCell>
        <mxCell id="LcGpcMvWt2SgMjPczcAH-21" value="registrar_usuario(Usuario)" style="html=1;verticalAlign=bottom;endArrow=block;curved=0;rounded=0;" edge="1" parent="1" source="LcGpcMvWt2SgMjPczcAH-19" target="LcGpcMvWt2SgMjPczcAH-20">
          <mxGeometry x="0.0023" width="80" relative="1" as="geometry">
            <mxPoint x="510" y="310" as="sourcePoint" />
            <mxPoint x="590" y="310" as="targetPoint" />
            <mxPoint as="offset" />
          </mxGeometry>
        </mxCell>
        <mxCell id="LcGpcMvWt2SgMjPczcAH-23" value="mostrar_mensaje_exito()" style="html=1;verticalAlign=bottom;endArrow=open;dashed=1;endSize=8;curved=0;rounded=0;exitX=0;exitY=1;exitDx=0;exitDy=-5;exitPerimeter=0;" edge="1" parent="1" source="LcGpcMvWt2SgMjPczcAH-20" target="LcGpcMvWt2SgMjPczcAH-15">
          <mxGeometry relative="1" as="geometry">
            <mxPoint x="840" y="330" as="sourcePoint" />
            <mxPoint x="510" y="430" as="targetPoint" />
          </mxGeometry>
        </mxCell>
        <mxCell id="LcGpcMvWt2SgMjPczcAH-24" value="alt" style="shape=umlFrame;whiteSpace=wrap;html=1;pointerEvents=0;" vertex="1" parent="1">
          <mxGeometry x="110" y="330" width="600" height="140" as="geometry" />
        </mxCell>
        <mxCell id="LcGpcMvWt2SgMjPczcAH-27" value="mostrar_mensaje_error()" style="html=1;verticalAlign=bottom;endArrow=open;dashed=1;endSize=8;curved=0;rounded=0;exitX=0;exitY=1;exitDx=0;exitDy=-5;exitPerimeter=0;" edge="1" parent="1" target="LcGpcMvWt2SgMjPczcAH-13">
          <mxGeometry relative="1" as="geometry">
            <mxPoint x="545" y="445" as="sourcePoint" />
            <mxPoint x="510" y="430" as="targetPoint" />
          </mxGeometry>
        </mxCell>
        <mxCell id="LcGpcMvWt2SgMjPczcAH-28" value="" style="html=1;points=[[0,0,0,0,5],[0,1,0,0,-5],[1,0,0,0,5],[1,1,0,0,-5]];perimeter=orthogonalPerimeter;outlineConnect=0;targetShapes=umlLifeline;portConstraint=eastwest;newEdgeStyle={&quot;curved&quot;:0,&quot;rounded&quot;:0};" vertex="1" parent="1">
          <mxGeometry x="565" y="390" width="10" height="40" as="geometry" />
        </mxCell>
        <mxCell id="LcGpcMvWt2SgMjPczcAH-29" value="validar_usuario()" style="html=1;align=left;spacingLeft=2;endArrow=block;rounded=0;edgeStyle=orthogonalEdgeStyle;curved=0;rounded=0;exitX=1;exitY=0;exitDx=0;exitDy=5;exitPerimeter=0;entryX=1;entryY=1;entryDx=0;entryDy=-5;entryPerimeter=0;" edge="1" parent="1" source="LcGpcMvWt2SgMjPczcAH-28" target="LcGpcMvWt2SgMjPczcAH-28">
          <mxGeometry relative="1" as="geometry">
            <mxPoint x="560" y="400" as="sourcePoint" />
            <Array as="points">
              <mxPoint x="600" y="395" />
              <mxPoint x="600" y="425" />
            </Array>
            <mxPoint x="560" y="430" as="targetPoint" />
          </mxGeometry>
        </mxCell>
        <mxCell id="OxKVXp9wMLbaAqHzc7Et-3" value="" style="html=1;points=[[0,0,0,0,5],[0,1,0,0,-5],[1,0,0,0,5],[1,1,0,0,-5]];perimeter=orthogonalPerimeter;outlineConnect=0;targetShapes=umlLifeline;portConstraint=eastwest;newEdgeStyle={&quot;curved&quot;:0,&quot;rounded&quot;:0};" vertex="1" parent="1">
          <mxGeometry x="130" y="500" width="10" height="190" as="geometry" />
        </mxCell>
        <mxCell id="OxKVXp9wMLbaAqHzc7Et-4" value="iniciar_sesion(nombre_usuario, contraseña)" style="html=1;verticalAlign=bottom;endArrow=block;curved=0;rounded=0;exitX=1;exitY=0;exitDx=0;exitDy=5;exitPerimeter=0;entryX=0;entryY=0;entryDx=0;entryDy=5;entryPerimeter=0;" edge="1" parent="1" source="OxKVXp9wMLbaAqHzc7Et-3" target="OxKVXp9wMLbaAqHzc7Et-2">
          <mxGeometry x="0.0029" width="80" relative="1" as="geometry">
            <mxPoint x="150" y="500" as="sourcePoint" />
            <mxPoint x="484.5" y="500" as="targetPoint" />
            <mxPoint as="offset" />
          </mxGeometry>
        </mxCell>
        <mxCell id="OxKVXp9wMLbaAqHzc7Et-6" value="verificar_usuario(nombre_usuario, contraseña)" style="html=1;verticalAlign=bottom;endArrow=block;curved=0;rounded=0;exitX=1;exitY=1;exitDx=0;exitDy=-5;exitPerimeter=0;entryX=0;entryY=0;entryDx=0;entryDy=5;entryPerimeter=0;" edge="1" parent="1" source="OxKVXp9wMLbaAqHzc7Et-2" target="OxKVXp9wMLbaAqHzc7Et-1">
          <mxGeometry width="80" relative="1" as="geometry">
            <mxPoint x="484.5" y="590" as="sourcePoint" />
            <mxPoint x="754.5" y="590" as="targetPoint" />
            <mxPoint as="offset" />
          </mxGeometry>
        </mxCell>
        <mxCell id="OxKVXp9wMLbaAqHzc7Et-7" value="mostrar_mensaje_exito()" style="html=1;verticalAlign=bottom;endArrow=open;dashed=1;endSize=8;curved=0;rounded=0;" edge="1" parent="1" source="OxKVXp9wMLbaAqHzc7Et-1" target="OxKVXp9wMLbaAqHzc7Et-3">
          <mxGeometry relative="1" as="geometry">
            <mxPoint x="745" y="690" as="sourcePoint" />
            <mxPoint x="145" y="640" as="targetPoint" />
          </mxGeometry>
        </mxCell>
        <mxCell id="OxKVXp9wMLbaAqHzc7Et-8" value="mostrar_mensaje_error()" style="html=1;verticalAlign=bottom;endArrow=open;dashed=1;endSize=8;curved=0;rounded=0;exitX=0;exitY=1;exitDx=0;exitDy=-5;exitPerimeter=0;" edge="1" parent="1" source="OxKVXp9wMLbaAqHzc7Et-1" target="LcGpcMvWt2SgMjPczcAH-13">
          <mxGeometry relative="1" as="geometry">
            <mxPoint x="534.5" y="760" as="sourcePoint" />
            <mxPoint x="150" y="755" as="targetPoint" />
            <Array as="points" />
          </mxGeometry>
        </mxCell>
        <mxCell id="OxKVXp9wMLbaAqHzc7Et-9" value="alt" style="shape=umlFrame;whiteSpace=wrap;html=1;pointerEvents=0;" vertex="1" parent="1">
          <mxGeometry x="120" y="700" width="910" height="100" as="geometry" />
        </mxCell>
      </root>
    </mxGraphModel>
  </diagram>
</mxfile>
